<?xml version="1.0" encoding="UTF-8"?><svg id="_レイヤー_1" xmlns="http://www.w3.org/2000/svg" width="512" height="512" viewBox="0 0 148.842 226.772"><path d="M20.261,37.295c2.586,1.685,6.049.948,7.731-1.639l9.845-15.146,11.498,17.689h20.596l11.498-17.689,9.845,15.146c1.071,1.647,2.862,2.543,4.69,2.543,1.045,0,2.101-.293,3.041-.904,2.588-1.682,3.322-5.144,1.639-7.731L81.431,0l-17.563,27.021h-8.466L37.838,0l-19.216,29.563c-1.683,2.588-.948,6.05,1.639,7.731Z" style="fill:#eb5a24; stroke-width:0px;"/><path d="M131.447,140.595c-1.326-2.788-4.658-3.973-7.446-2.65-2.788,1.325-3.974,4.658-2.65,7.446l14.411,30.338-31.558,39.863h-15.317l30.383-38.377-41.312-86.974c-1.325-2.788-4.66-3.973-7.446-2.65-2.788,1.325-3.974,4.658-2.65,7.446l38.329,80.691-31.559,39.863h-29.99l-31.559-39.863,38.329-80.691c1.324-2.788.138-6.122-2.65-7.446-2.783-1.324-6.122-.137-7.446,2.65L0,177.216l39.233,49.556h70.377l39.233-49.556-17.395-36.621Z" style="fill:#eb5a24; stroke-width:0px;"/></svg>